<svg xmlns="http://www.w3.org/2000/svg" viewBox="0 0 1500 500" width="1500" height="500">
  <defs>
    <radialGradient id="flood" cx="50%" cy="-10%" r="75%">
      <stop offset="0%" stop-color="#E9C258" stop-opacity="0.10"/>
      <stop offset="100%" stop-color="#E9C258" stop-opacity="0"/>
    </radialGradient>
  </defs>
  <rect width="1500" height="500" fill="#24492E"/>
  <rect width="1500" height="500" fill="url(#flood)"/>
  <rect x="75.0" y="0" width="1" height="500" fill="#FFFFFF" opacity="0.09"/>
  <rect x="69.0" y="150.0" width="13" height="1" fill="#FFFFFF" opacity="0.14"/>
  <rect x="69.0" y="350.0" width="13" height="1" fill="#FFFFFF" opacity="0.14"/>
  <rect x="150.0" y="0" width="1" height="500" fill="#FFFFFF" opacity="0.18"/>
  <rect x="144.0" y="150.0" width="13" height="1" fill="#FFFFFF" opacity="0.14"/>
  <rect x="144.0" y="350.0" width="13" height="1" fill="#FFFFFF" opacity="0.14"/>
  <rect x="225.0" y="0" width="1" height="500" fill="#FFFFFF" opacity="0.09"/>
  <rect x="219.0" y="150.0" width="13" height="1" fill="#FFFFFF" opacity="0.14"/>
  <rect x="219.0" y="350.0" width="13" height="1" fill="#FFFFFF" opacity="0.14"/>
  <rect x="300.0" y="0" width="1" height="500" fill="#FFFFFF" opacity="0.18"/>
  <rect x="294.0" y="150.0" width="13" height="1" fill="#FFFFFF" opacity="0.14"/>
  <rect x="294.0" y="350.0" width="13" height="1" fill="#FFFFFF" opacity="0.14"/>
  <rect x="375.0" y="0" width="1" height="500" fill="#FFFFFF" opacity="0.09"/>
  <rect x="369.0" y="150.0" width="13" height="1" fill="#FFFFFF" opacity="0.14"/>
  <rect x="369.0" y="350.0" width="13" height="1" fill="#FFFFFF" opacity="0.14"/>
  <rect x="450.0" y="0" width="1" height="500" fill="#FFFFFF" opacity="0.18"/>
  <rect x="444.0" y="150.0" width="13" height="1" fill="#FFFFFF" opacity="0.14"/>
  <rect x="444.0" y="350.0" width="13" height="1" fill="#FFFFFF" opacity="0.14"/>
  <rect x="525.0" y="0" width="1" height="500" fill="#FFFFFF" opacity="0.09"/>
  <rect x="519.0" y="150.0" width="13" height="1" fill="#FFFFFF" opacity="0.14"/>
  <rect x="519.0" y="350.0" width="13" height="1" fill="#FFFFFF" opacity="0.14"/>
  <rect x="600.0" y="0" width="1" height="500" fill="#FFFFFF" opacity="0.18"/>
  <rect x="594.0" y="150.0" width="13" height="1" fill="#FFFFFF" opacity="0.14"/>
  <rect x="594.0" y="350.0" width="13" height="1" fill="#FFFFFF" opacity="0.14"/>
  <rect x="675.0" y="0" width="1" height="500" fill="#FFFFFF" opacity="0.09"/>
  <rect x="669.0" y="150.0" width="13" height="1" fill="#FFFFFF" opacity="0.14"/>
  <rect x="669.0" y="350.0" width="13" height="1" fill="#FFFFFF" opacity="0.14"/>
  <rect x="750.0" y="0" width="1" height="500" fill="#FFFFFF" opacity="0.18"/>
  <rect x="744.0" y="150.0" width="13" height="1" fill="#FFFFFF" opacity="0.14"/>
  <rect x="744.0" y="350.0" width="13" height="1" fill="#FFFFFF" opacity="0.14"/>
  <rect x="825.0" y="0" width="1" height="500" fill="#FFFFFF" opacity="0.09"/>
  <rect x="819.0" y="150.0" width="13" height="1" fill="#FFFFFF" opacity="0.14"/>
  <rect x="819.0" y="350.0" width="13" height="1" fill="#FFFFFF" opacity="0.14"/>
  <rect x="900.0" y="0" width="1" height="500" fill="#FFFFFF" opacity="0.18"/>
  <rect x="894.0" y="150.0" width="13" height="1" fill="#FFFFFF" opacity="0.14"/>
  <rect x="894.0" y="350.0" width="13" height="1" fill="#FFFFFF" opacity="0.14"/>
  <rect x="975.0" y="0" width="1" height="500" fill="#FFFFFF" opacity="0.09"/>
  <rect x="969.0" y="150.0" width="13" height="1" fill="#FFFFFF" opacity="0.14"/>
  <rect x="969.0" y="350.0" width="13" height="1" fill="#FFFFFF" opacity="0.14"/>
  <rect x="1050.0" y="0" width="1" height="500" fill="#FFFFFF" opacity="0.18"/>
  <rect x="1044.0" y="150.0" width="13" height="1" fill="#FFFFFF" opacity="0.14"/>
  <rect x="1044.0" y="350.0" width="13" height="1" fill="#FFFFFF" opacity="0.14"/>
  <rect x="1125.0" y="0" width="1" height="500" fill="#FFFFFF" opacity="0.09"/>
  <rect x="1119.0" y="150.0" width="13" height="1" fill="#FFFFFF" opacity="0.14"/>
  <rect x="1119.0" y="350.0" width="13" height="1" fill="#FFFFFF" opacity="0.14"/>
  <rect x="1200.0" y="0" width="1" height="500" fill="#FFFFFF" opacity="0.18"/>
  <rect x="1194.0" y="150.0" width="13" height="1" fill="#FFFFFF" opacity="0.14"/>
  <rect x="1194.0" y="350.0" width="13" height="1" fill="#FFFFFF" opacity="0.14"/>
  <rect x="1275.0" y="0" width="1" height="500" fill="#FFFFFF" opacity="0.09"/>
  <rect x="1269.0" y="150.0" width="13" height="1" fill="#FFFFFF" opacity="0.14"/>
  <rect x="1269.0" y="350.0" width="13" height="1" fill="#FFFFFF" opacity="0.14"/>
  <rect x="1350.0" y="0" width="1" height="500" fill="#FFFFFF" opacity="0.18"/>
  <rect x="1344.0" y="150.0" width="13" height="1" fill="#FFFFFF" opacity="0.14"/>
  <rect x="1344.0" y="350.0" width="13" height="1" fill="#FFFFFF" opacity="0.14"/>
  <rect x="1425.0" y="0" width="1" height="500" fill="#FFFFFF" opacity="0.09"/>
  <rect x="1419.0" y="150.0" width="13" height="1" fill="#FFFFFF" opacity="0.14"/>
  <rect x="1419.0" y="350.0" width="13" height="1" fill="#FFFFFF" opacity="0.14"/>
  <text x="150.0" y="71.9" font-family="Anton" font-size="62.5" fill="#FFFFFF" opacity="0.16" text-anchor="middle" letter-spacing="5.0">10</text>
  <text x="150.0" y="475.0" font-family="Anton" font-size="62.5" fill="#FFFFFF" opacity="0.16" text-anchor="middle" letter-spacing="5.0">10</text>
  <text x="300.0" y="71.9" font-family="Anton" font-size="62.5" fill="#FFFFFF" opacity="0.16" text-anchor="middle" letter-spacing="5.0">20</text>
  <text x="300.0" y="475.0" font-family="Anton" font-size="62.5" fill="#FFFFFF" opacity="0.16" text-anchor="middle" letter-spacing="5.0">20</text>
  <text x="450.0" y="71.9" font-family="Anton" font-size="62.5" fill="#FFFFFF" opacity="0.16" text-anchor="middle" letter-spacing="5.0">30</text>
  <text x="450.0" y="475.0" font-family="Anton" font-size="62.5" fill="#FFFFFF" opacity="0.16" text-anchor="middle" letter-spacing="5.0">30</text>
  <text x="600.0" y="71.9" font-family="Anton" font-size="62.5" fill="#FFFFFF" opacity="0.16" text-anchor="middle" letter-spacing="5.0">40</text>
  <text x="600.0" y="475.0" font-family="Anton" font-size="62.5" fill="#FFFFFF" opacity="0.16" text-anchor="middle" letter-spacing="5.0">40</text>
  <text x="750.0" y="71.9" font-family="Anton" font-size="62.5" fill="#FFFFFF" opacity="0.16" text-anchor="middle" letter-spacing="5.0">50</text>
  <text x="750.0" y="475.0" font-family="Anton" font-size="62.5" fill="#FFFFFF" opacity="0.16" text-anchor="middle" letter-spacing="5.0">50</text>
  <text x="900.0" y="71.9" font-family="Anton" font-size="62.5" fill="#FFFFFF" opacity="0.16" text-anchor="middle" letter-spacing="5.0">40</text>
  <text x="900.0" y="475.0" font-family="Anton" font-size="62.5" fill="#FFFFFF" opacity="0.16" text-anchor="middle" letter-spacing="5.0">40</text>
  <text x="1050.0" y="71.9" font-family="Anton" font-size="62.5" fill="#FFFFFF" opacity="0.16" text-anchor="middle" letter-spacing="5.0">30</text>
  <text x="1050.0" y="475.0" font-family="Anton" font-size="62.5" fill="#FFFFFF" opacity="0.16" text-anchor="middle" letter-spacing="5.0">30</text>
  <text x="1200.0" y="71.9" font-family="Anton" font-size="62.5" fill="#FFFFFF" opacity="0.16" text-anchor="middle" letter-spacing="5.0">20</text>
  <text x="1200.0" y="475.0" font-family="Anton" font-size="62.5" fill="#FFFFFF" opacity="0.16" text-anchor="middle" letter-spacing="5.0">20</text>
  <text x="1350.0" y="71.9" font-family="Anton" font-size="62.5" fill="#FFFFFF" opacity="0.16" text-anchor="middle" letter-spacing="5.0">10</text>
  <text x="1350.0" y="475.0" font-family="Anton" font-size="62.5" fill="#FFFFFF" opacity="0.16" text-anchor="middle" letter-spacing="5.0">10</text>
  <text x="750" y="303.2" text-anchor="middle" font-family="Anton" font-size="152" letter-spacing="2.28" fill="#F0F2EC">COMMISH<tspan fill="#FF6A2B">.FUN</tspan></text>
  
</svg>
