<svg xmlns="http://www.w3.org/2000/svg" viewBox="0 0 1200 630" width="1200" height="630">
  <defs>
    <radialGradient id="flood" cx="50%" cy="-10%" r="75%">
      <stop offset="0%" stop-color="#E9C258" stop-opacity="0.10"/>
      <stop offset="100%" stop-color="#E9C258" stop-opacity="0"/>
    </radialGradient>
  </defs>
  <rect width="1200" height="630" fill="#0A100C"/>
  <rect width="1200" height="630" fill="url(#flood)"/>
  <rect x="60.0" y="0" width="1" height="630" fill="#F0F2EC" opacity="0.05"/>
  <rect x="54.0" y="189.0" width="13" height="1" fill="#F0F2EC" opacity="0.08"/>
  <rect x="54.0" y="441.0" width="13" height="1" fill="#F0F2EC" opacity="0.08"/>
  <rect x="120.0" y="0" width="1" height="630" fill="#F0F2EC" opacity="0.1"/>
  <rect x="114.0" y="189.0" width="13" height="1" fill="#F0F2EC" opacity="0.08"/>
  <rect x="114.0" y="441.0" width="13" height="1" fill="#F0F2EC" opacity="0.08"/>
  <rect x="180.0" y="0" width="1" height="630" fill="#F0F2EC" opacity="0.05"/>
  <rect x="174.0" y="189.0" width="13" height="1" fill="#F0F2EC" opacity="0.08"/>
  <rect x="174.0" y="441.0" width="13" height="1" fill="#F0F2EC" opacity="0.08"/>
  <rect x="240.0" y="0" width="1" height="630" fill="#F0F2EC" opacity="0.1"/>
  <rect x="234.0" y="189.0" width="13" height="1" fill="#F0F2EC" opacity="0.08"/>
  <rect x="234.0" y="441.0" width="13" height="1" fill="#F0F2EC" opacity="0.08"/>
  <rect x="300.0" y="0" width="1" height="630" fill="#F0F2EC" opacity="0.05"/>
  <rect x="294.0" y="189.0" width="13" height="1" fill="#F0F2EC" opacity="0.08"/>
  <rect x="294.0" y="441.0" width="13" height="1" fill="#F0F2EC" opacity="0.08"/>
  <rect x="360.0" y="0" width="1" height="630" fill="#F0F2EC" opacity="0.1"/>
  <rect x="354.0" y="189.0" width="13" height="1" fill="#F0F2EC" opacity="0.08"/>
  <rect x="354.0" y="441.0" width="13" height="1" fill="#F0F2EC" opacity="0.08"/>
  <rect x="420.0" y="0" width="1" height="630" fill="#F0F2EC" opacity="0.05"/>
  <rect x="414.0" y="189.0" width="13" height="1" fill="#F0F2EC" opacity="0.08"/>
  <rect x="414.0" y="441.0" width="13" height="1" fill="#F0F2EC" opacity="0.08"/>
  <rect x="480.0" y="0" width="1" height="630" fill="#F0F2EC" opacity="0.1"/>
  <rect x="474.0" y="189.0" width="13" height="1" fill="#F0F2EC" opacity="0.08"/>
  <rect x="474.0" y="441.0" width="13" height="1" fill="#F0F2EC" opacity="0.08"/>
  <rect x="540.0" y="0" width="1" height="630" fill="#F0F2EC" opacity="0.05"/>
  <rect x="534.0" y="189.0" width="13" height="1" fill="#F0F2EC" opacity="0.08"/>
  <rect x="534.0" y="441.0" width="13" height="1" fill="#F0F2EC" opacity="0.08"/>
  <rect x="600.0" y="0" width="1" height="630" fill="#F0F2EC" opacity="0.1"/>
  <rect x="594.0" y="189.0" width="13" height="1" fill="#F0F2EC" opacity="0.08"/>
  <rect x="594.0" y="441.0" width="13" height="1" fill="#F0F2EC" opacity="0.08"/>
  <rect x="660.0" y="0" width="1" height="630" fill="#F0F2EC" opacity="0.05"/>
  <rect x="654.0" y="189.0" width="13" height="1" fill="#F0F2EC" opacity="0.08"/>
  <rect x="654.0" y="441.0" width="13" height="1" fill="#F0F2EC" opacity="0.08"/>
  <rect x="720.0" y="0" width="1" height="630" fill="#F0F2EC" opacity="0.1"/>
  <rect x="714.0" y="189.0" width="13" height="1" fill="#F0F2EC" opacity="0.08"/>
  <rect x="714.0" y="441.0" width="13" height="1" fill="#F0F2EC" opacity="0.08"/>
  <rect x="780.0" y="0" width="1" height="630" fill="#F0F2EC" opacity="0.05"/>
  <rect x="774.0" y="189.0" width="13" height="1" fill="#F0F2EC" opacity="0.08"/>
  <rect x="774.0" y="441.0" width="13" height="1" fill="#F0F2EC" opacity="0.08"/>
  <rect x="840.0" y="0" width="1" height="630" fill="#F0F2EC" opacity="0.1"/>
  <rect x="834.0" y="189.0" width="13" height="1" fill="#F0F2EC" opacity="0.08"/>
  <rect x="834.0" y="441.0" width="13" height="1" fill="#F0F2EC" opacity="0.08"/>
  <rect x="900.0" y="0" width="1" height="630" fill="#F0F2EC" opacity="0.05"/>
  <rect x="894.0" y="189.0" width="13" height="1" fill="#F0F2EC" opacity="0.08"/>
  <rect x="894.0" y="441.0" width="13" height="1" fill="#F0F2EC" opacity="0.08"/>
  <rect x="960.0" y="0" width="1" height="630" fill="#F0F2EC" opacity="0.1"/>
  <rect x="954.0" y="189.0" width="13" height="1" fill="#F0F2EC" opacity="0.08"/>
  <rect x="954.0" y="441.0" width="13" height="1" fill="#F0F2EC" opacity="0.08"/>
  <rect x="1020.0" y="0" width="1" height="630" fill="#F0F2EC" opacity="0.05"/>
  <rect x="1014.0" y="189.0" width="13" height="1" fill="#F0F2EC" opacity="0.08"/>
  <rect x="1014.0" y="441.0" width="13" height="1" fill="#F0F2EC" opacity="0.08"/>
  <rect x="1080.0" y="0" width="1" height="630" fill="#F0F2EC" opacity="0.1"/>
  <rect x="1074.0" y="189.0" width="13" height="1" fill="#F0F2EC" opacity="0.08"/>
  <rect x="1074.0" y="441.0" width="13" height="1" fill="#F0F2EC" opacity="0.08"/>
  <rect x="1140.0" y="0" width="1" height="630" fill="#F0F2EC" opacity="0.05"/>
  <rect x="1134.0" y="189.0" width="13" height="1" fill="#F0F2EC" opacity="0.08"/>
  <rect x="1134.0" y="441.0" width="13" height="1" fill="#F0F2EC" opacity="0.08"/>
  <text x="120.0" y="90.6" font-family="Anton" font-size="78.8" fill="#F0F2EC" opacity="0.09" text-anchor="middle" letter-spacing="6.3">10</text>
  <text x="120.0" y="598.5" font-family="Anton" font-size="78.8" fill="#F0F2EC" opacity="0.09" text-anchor="middle" letter-spacing="6.3">10</text>
  <text x="240.0" y="90.6" font-family="Anton" font-size="78.8" fill="#F0F2EC" opacity="0.09" text-anchor="middle" letter-spacing="6.3">20</text>
  <text x="240.0" y="598.5" font-family="Anton" font-size="78.8" fill="#F0F2EC" opacity="0.09" text-anchor="middle" letter-spacing="6.3">20</text>
  <text x="360.0" y="90.6" font-family="Anton" font-size="78.8" fill="#F0F2EC" opacity="0.09" text-anchor="middle" letter-spacing="6.3">30</text>
  <text x="360.0" y="598.5" font-family="Anton" font-size="78.8" fill="#F0F2EC" opacity="0.09" text-anchor="middle" letter-spacing="6.3">30</text>
  <text x="480.0" y="90.6" font-family="Anton" font-size="78.8" fill="#F0F2EC" opacity="0.09" text-anchor="middle" letter-spacing="6.3">40</text>
  <text x="480.0" y="598.5" font-family="Anton" font-size="78.8" fill="#F0F2EC" opacity="0.09" text-anchor="middle" letter-spacing="6.3">40</text>
  <text x="600.0" y="90.6" font-family="Anton" font-size="78.8" fill="#F0F2EC" opacity="0.09" text-anchor="middle" letter-spacing="6.3">50</text>
  <text x="600.0" y="598.5" font-family="Anton" font-size="78.8" fill="#F0F2EC" opacity="0.09" text-anchor="middle" letter-spacing="6.3">50</text>
  <text x="720.0" y="90.6" font-family="Anton" font-size="78.8" fill="#F0F2EC" opacity="0.09" text-anchor="middle" letter-spacing="6.3">40</text>
  <text x="720.0" y="598.5" font-family="Anton" font-size="78.8" fill="#F0F2EC" opacity="0.09" text-anchor="middle" letter-spacing="6.3">40</text>
  <text x="840.0" y="90.6" font-family="Anton" font-size="78.8" fill="#F0F2EC" opacity="0.09" text-anchor="middle" letter-spacing="6.3">30</text>
  <text x="840.0" y="598.5" font-family="Anton" font-size="78.8" fill="#F0F2EC" opacity="0.09" text-anchor="middle" letter-spacing="6.3">30</text>
  <text x="960.0" y="90.6" font-family="Anton" font-size="78.8" fill="#F0F2EC" opacity="0.09" text-anchor="middle" letter-spacing="6.3">20</text>
  <text x="960.0" y="598.5" font-family="Anton" font-size="78.8" fill="#F0F2EC" opacity="0.09" text-anchor="middle" letter-spacing="6.3">20</text>
  <text x="1080.0" y="90.6" font-family="Anton" font-size="78.8" fill="#F0F2EC" opacity="0.09" text-anchor="middle" letter-spacing="6.3">10</text>
  <text x="1080.0" y="598.5" font-family="Anton" font-size="78.8" fill="#F0F2EC" opacity="0.09" text-anchor="middle" letter-spacing="6.3">10</text>
  <g transform="translate(78 283.5)">
    <g transform="translate(95 0) scale(0.95)"><g transform="rotate(-14)" fill="#FF6A2B">
    <rect x="-9" y="-84" width="18" height="168" rx="9"/>
    <rect x="-49" y="-63" width="98" height="18" rx="9"/>
    <rect x="-49" y="-27" width="98" height="18" rx="9"/>
    <rect x="-49" y="9" width="98" height="18" rx="9"/>
    <rect x="-49" y="45" width="98" height="18" rx="9"/>
  </g></g>
    <text x="220.4" y="37.8" text-anchor="start" font-family="Anton" font-size="108" letter-spacing="1.62" fill="#F0F2EC">COMMISH<tspan fill="#FF6A2B">.FUN</tspan></text>
  </g>
  <text x="78" y="415.8" font-family="Anton" font-size="32.76" letter-spacing="6.93" fill="#98A69B">FOOTBALL POOLS, ESCROWED ON-CHAIN</text>
</svg>
